<svg width="49" height="24" viewBox="0 0 49 24" fill="none" xmlns="http://www.w3.org/2000/svg">
<g clip-path="url(#clip0_873_1803)">
<mask id="mask0_873_1803" style="mask-type:luminance" maskUnits="userSpaceOnUse" x="0" y="0" width="49" height="24">
<path d="M0 0H49V23.2258H0V0Z" fill="white"/>
</mask>
<g mask="url(#mask0_873_1803)">
<path d="M23.1215 12.0772V17.7288H21.284V3.71588H26.1074C27.2346 3.70994 28.3246 4.12326 29.1699 4.87717C29.6034 5.26104 29.9455 5.73888 30.1709 6.27508C30.3962 6.81128 30.499 7.392 30.4715 7.97395C30.4859 8.5242 30.3841 9.07123 30.1728 9.57854C29.9616 10.0859 29.6458 10.5418 29.2465 10.9159C28.3855 11.6946 27.2621 12.1102 26.1074 12.0772H23.1215ZM23.1215 5.41911V10.2965H26.184C26.9496 10.2965 27.5621 10.0643 28.0215 9.52234C28.2414 9.30591 28.4162 9.04711 28.5356 8.76122C28.655 8.47533 28.7165 8.16815 28.7165 7.85782C28.7165 7.54749 28.655 7.24031 28.5356 6.95442C28.4162 6.66853 28.2414 6.40973 28.0215 6.1933C27.7922 5.93314 27.5081 5.72848 27.19 5.59446C26.8719 5.46044 26.5281 5.40051 26.184 5.41911H23.1215ZM34.759 7.81911C36.0605 7.81911 37.0559 8.20621 37.898 8.90298C38.6637 9.67717 39.0465 10.6062 39.0465 11.8449V17.8062H37.3621V16.4901C37.024 16.9903 36.5654 17.395 36.0295 17.6659C35.4936 17.9369 34.8982 18.0651 34.2996 18.0385C33.2277 18.0385 32.309 17.8062 31.6199 17.1869C31.281 16.9003 31.0041 16.5461 30.8065 16.1465C30.6089 15.7469 30.4948 15.3104 30.4715 14.8643C30.4715 13.8578 30.8543 13.0062 31.6199 12.4643C32.4875 11.8388 33.543 11.5378 34.6059 11.6127C35.6777 11.6127 36.5965 11.7675 37.209 12.1546V11.7675C37.209 11.1481 36.9793 10.5288 36.4434 10.2191C35.984 9.75459 35.3715 9.44492 34.759 9.44492C33.6871 9.44492 32.9215 9.90943 32.309 10.761L30.7777 9.83201C31.6965 8.51588 33.0746 7.89653 34.759 7.89653V7.81911ZM32.4621 14.7869C32.4621 15.2514 32.6152 15.7159 32.998 15.9481C33.4574 16.2578 33.9168 16.4127 34.4527 16.4127C35.2184 16.4127 35.9074 16.103 36.4434 15.6385C37.0559 15.0191 37.3621 14.3998 37.3621 13.6256C36.6689 13.1343 35.8342 12.8893 34.9887 12.9288C34.326 12.9288 33.6813 13.1461 33.1512 13.5481C32.6152 13.7804 32.3855 14.2449 32.3855 14.7869H32.4621ZM48.9996 8.12879L42.8746 21.9869H41.1137L43.4105 17.1869L39.3527 8.20621H41.3434L44.2527 15.0965L47.0855 8.20621H48.9996V8.12879ZM15.848 10.8385L15.7715 9.21266H8.11523V12.3094H12.4027C12.2496 13.2385 11.6371 14.1675 10.8715 14.7094V16.7223H13.4746C14.2594 15.9672 14.8767 15.0523 15.2858 14.038C15.695 13.0237 15.8866 11.9332 15.848 10.8385Z" fill="white"/>
<path d="M8.11523 18.6585C10.259 18.6585 12.0965 17.9617 13.4746 16.723L10.8715 14.7101C10.1059 15.252 9.18711 15.4843 8.11523 15.4843C7.10057 15.4885 6.11043 15.1691 5.28568 14.5714C4.46094 13.9737 3.84359 13.1282 3.52148 12.1553H0.841797V14.2456C2.29648 16.9553 5.05273 18.5811 8.11523 18.5811V18.6585Z" fill="white"/>
<path d="M3.52148 12.1549C3.15834 11.1553 3.15834 10.0577 3.52148 9.0581V6.96777H0.841797C-0.306641 9.29035 -0.306641 11.9226 0.841797 14.2452L3.52148 12.1549Z" fill="white"/>
<path d="M8.11484 5.80645C9.242 5.80051 10.332 6.21383 11.1773 6.96774L13.4742 4.64516C12.0961 3.32904 10.1055 2.55484 8.11484 2.63226C5.05234 2.63226 2.29609 4.33549 0.917969 7.04516L3.59766 9.13549C3.88367 8.15546 4.48127 7.29813 5.29791 6.6963C6.11454 6.09446 7.10463 5.7817 8.11484 5.80645Z" fill="white"/>
</g>
</g>
<defs>
<clipPath id="clip0_873_1803">
<rect width="49" height="24" fill="white"/>
</clipPath>
</defs>
</svg>
