<svg width="82" height="19" viewBox="0 0 82 19" fill="none" xmlns="http://www.w3.org/2000/svg">
<g clip-path="url(#clip0_873_1819)">
<mask id="mask0_873_1819" style="mask-type:luminance" maskUnits="userSpaceOnUse" x="0" y="0" width="82" height="19">
<path d="M0 0H81.3333V18.3871H0V0Z" fill="white"/>
</mask>
<g mask="url(#mask0_873_1819)">
<path d="M26.3731 10.1125C26.3731 10.9093 26.2535 11.4609 25.7751 11.8287C25.4162 12.2577 24.878 12.4416 24.1006 12.4416C23.6221 12.4416 23.2633 12.3803 22.9045 12.1964C22.5456 12.0738 22.3064 11.7674 22.127 11.4609C21.9344 11.1043 21.8317 10.704 21.828 10.2964V10.1738H23.3231C23.3231 10.4803 23.3231 10.7867 23.5025 10.9706C23.6221 11.0932 23.8015 11.1545 24.1006 11.1545C24.3398 11.1545 24.5192 11.1545 24.6388 11.0319L24.8182 10.6641L24.878 10.1738V5.45447H26.4329V10.1125H26.3731ZM28.7055 5.94479C28.7055 6.06737 28.5858 6.18995 28.526 6.25124L28.0476 6.31253L27.5692 6.25124C27.4588 6.17872 27.3748 6.07105 27.33 5.94479L27.2104 5.51576C27.2104 5.39318 27.2104 5.2706 27.33 5.14801C27.33 5.02543 27.4496 4.90285 27.5692 4.84156L28.0476 4.78027L28.526 4.84156L28.7653 5.14801L28.8849 5.51576C28.8849 5.76092 28.8251 5.8835 28.7653 5.94479H28.7055ZM28.7055 7.1706V12.2577H27.3898V7.10931H28.7055V7.1706ZM34.2074 11.0932C34.028 11.5222 33.729 11.8287 33.3702 12.0738C32.9515 12.2577 32.5329 12.3803 31.9947 12.3803C31.5162 12.3803 31.0976 12.2577 30.679 12.0738C30.2604 11.8287 30.0211 11.4609 29.7819 11.0932C29.5742 10.6544 29.4717 10.1711 29.4829 9.6835C29.4829 9.0706 29.6025 8.70285 29.7819 8.27382C30.0211 7.84479 30.3202 7.53834 30.679 7.35447C31.0934 7.12908 31.5554 7.01123 32.0246 7.01123C32.4937 7.01123 32.9557 7.12908 33.3702 7.35447C33.7888 7.53834 33.9682 7.96737 34.2074 8.27382C34.4466 8.70285 34.5064 9.19318 34.5064 9.6835C34.5064 10.2351 34.4466 10.7254 34.2074 11.0932ZM32.8917 10.9093C33.0711 10.6641 33.1309 10.2351 33.1309 9.6835C33.1309 9.19318 33.0113 8.82543 32.8917 8.45769C32.7123 8.21253 32.3535 8.02866 31.9947 8.02866C31.576 8.02866 31.3368 8.15124 31.1574 8.45769C30.978 8.76414 30.9182 9.19318 30.9182 9.74479C30.9182 10.2964 31.0378 10.6641 31.1574 10.9706C31.3966 11.2158 31.6957 11.3996 32.0545 11.3996C32.4133 11.3996 32.6525 11.1545 32.8917 10.9093ZM41.6829 5.57705C42.0417 5.76092 42.2809 6.06737 42.4604 6.37382C42.6345 6.73609 42.725 7.13451 42.725 7.53834C42.725 7.94216 42.6345 8.34059 42.4604 8.70285C42.3407 9.00931 42.0417 9.31576 41.6829 9.49963C41.2864 9.67318 40.858 9.75681 40.427 9.74479H38.8721V12.1964H37.3172V5.2706H40.4868C40.9055 5.2706 41.3241 5.39318 41.6829 5.51576V5.57705ZM40.9653 8.33511C41.2045 8.15124 41.2643 7.90608 41.2643 7.53834C41.2643 7.23189 41.2045 6.92543 41.0251 6.80285C40.8457 6.61898 40.5466 6.61898 40.128 6.61898H38.9319V8.58027H40.128C40.427 8.58027 40.726 8.58027 40.9653 8.33511ZM46.0486 8.82543C46.0486 8.51898 46.0486 8.27382 45.929 8.08995C45.8094 7.96737 45.63 7.90608 45.2711 7.90608C45.0319 7.90608 44.7329 7.90608 44.6731 8.08995C44.4937 8.15124 44.4339 8.33511 44.3741 8.51898H43.0584C43.0584 8.02866 43.2378 7.66092 43.7162 7.29318C44.1349 7.04801 44.7329 6.92543 45.3908 6.92543C46.1682 6.92543 46.6466 7.04802 47.0055 7.41576C47.3643 7.72221 47.5437 8.27382 47.5437 8.94802V12.2577H46.228V11.6448C46.1084 11.7674 45.929 12.0738 45.63 12.1351C45.3908 12.319 45.0319 12.3803 44.6731 12.3803C44.3741 12.3803 43.9555 12.3803 43.7162 12.1964C43.477 12.1351 43.2378 11.8899 43.1182 11.5835C42.9388 11.3996 42.879 11.0319 42.879 10.7254C42.879 10.1125 43.1182 9.74479 43.5966 9.43834C44.0153 9.19318 44.6731 9.00931 45.4506 9.00931H46.228V8.82543H46.0486ZM45.5104 9.92866C45.0319 9.92866 44.7329 9.98995 44.5535 10.1125C44.3143 10.2351 44.2545 10.3577 44.2545 10.7254C44.2545 10.9093 44.2545 11.0932 44.4339 11.2158C44.6133 11.3383 44.7329 11.3996 45.0319 11.3996L45.63 11.277L45.9888 10.848C46.1084 10.6641 46.1084 10.5416 46.1084 10.2351V9.92866H45.5702H45.5104ZM50.2947 10.6641L51.4309 7.10931H52.8662L51.1319 12.1351C50.9552 12.6167 50.7137 13.0705 50.4143 13.4835C50.1751 13.7287 49.8162 13.9738 49.5172 14.0964C49.1584 14.219 48.7996 14.2803 48.3211 14.2803V13.0545C48.68 13.0545 48.979 13.0545 49.1584 12.8706C49.3976 12.8093 49.577 12.6254 49.6368 12.319L47.8427 7.1706H49.2182L50.2947 10.6641ZM58.0094 7.1706C58.3084 6.98672 58.6074 6.98672 58.9662 6.98672C59.5045 6.98672 59.9231 7.10931 60.2221 7.47705C60.4613 7.7835 60.7006 8.27382 60.7006 8.82543V12.319H59.3251V9.49963C59.3251 9.00931 59.2653 8.64156 59.0858 8.45769C58.9662 8.27382 58.7868 8.21253 58.4878 8.21253C58.1888 8.21253 57.9496 8.33511 57.83 8.51898C57.6506 8.76414 57.5908 9.13189 57.5908 9.56092V12.3803H56.2153V9.49963C56.2153 9.00931 56.1555 8.64156 55.976 8.45769C55.9162 8.27382 55.677 8.21253 55.378 8.21253C55.079 8.21253 54.8398 8.33511 54.7202 8.51898C54.5408 8.76414 54.4809 9.13189 54.4809 9.56092V12.3803H53.2251V7.23189H54.4211V7.84479C54.8398 7.23189 55.3182 6.98672 55.9162 6.98672C56.2751 6.98672 56.6339 6.98672 56.8133 7.1706C56.9927 7.35447 57.2917 7.47705 57.4113 7.7835C57.5602 7.53327 57.7652 7.32314 58.0094 7.1706ZM66.2623 10.0512H62.6741C62.6741 10.5416 62.7937 10.848 63.0329 11.0319C63.2123 11.2158 63.5113 11.3383 63.8702 11.3383C64.1692 11.3383 64.4084 11.277 64.5878 11.1545C64.7074 11.0319 64.827 10.9706 64.8868 10.7254H66.0829C66.0231 11.277 65.7241 11.7061 65.3055 11.9512C64.9466 12.2577 64.4682 12.4416 63.8104 12.4416C63.3319 12.4416 62.8535 12.319 62.4349 12.1351C62.0162 11.8899 61.777 11.5222 61.5976 11.1545C61.3584 10.7867 61.2388 10.2964 61.2388 9.74479C61.2388 9.19318 61.3584 8.82543 61.5976 8.33511C61.777 7.90608 62.076 7.59963 62.4349 7.35447C62.8535 7.1706 63.2721 7.04802 63.8104 7.04802C64.2888 7.04802 64.7074 7.1706 65.126 7.35447C65.5447 7.59963 65.7241 7.96737 65.9633 8.3964C66.0829 8.82543 66.2025 9.25447 66.2025 9.86737L66.2623 10.0512ZM64.8868 9.13189C64.827 8.3964 64.4084 8.02866 63.8104 8.02866C63.4515 8.02866 63.2123 8.08995 63.0329 8.27382C62.8215 8.48493 62.6937 8.76872 62.6741 9.0706H64.8868V9.13189ZM71.5251 12.2577H70.1496V9.43834C70.1496 8.94801 70.0898 8.58027 69.9104 8.45769C69.7908 8.21253 69.4917 8.15124 69.2525 8.15124C68.9535 8.15124 68.6545 8.27382 68.5349 8.45769C68.3555 8.70285 68.3555 9.0706 68.3555 9.49963V12.2577H66.9202V7.10931H68.2957V7.96737C68.4153 7.72221 68.7143 7.47705 68.8937 7.35447C69.1927 7.1706 69.4917 7.10931 69.7908 7.10931C70.3888 7.10931 70.8672 7.29318 71.1662 7.66092C71.4055 7.96737 71.6447 8.51898 71.6447 9.25447V12.319H71.5251V12.2577ZM74.1564 7.10931H75.1133V8.08995H74.0966V10.2964L74.1564 10.9093C74.1564 11.0319 74.2761 11.0932 74.3359 11.1545L74.7545 11.2158H75.1731V12.2577L74.5153 12.3803C73.9172 12.3803 73.5584 12.1964 73.1996 11.8899C72.9604 11.6448 72.7809 11.1545 72.7809 10.4803V7.96737H71.9437V6.98672H72.7809V5.51576H74.1564V7.10931ZM78.4623 8.45769C78.4623 8.27382 78.3427 8.15124 78.2231 8.02866C78.1035 7.90608 77.9241 7.90608 77.6251 7.90608C77.326 7.90608 77.1466 7.90608 77.027 8.02866L76.9074 8.33511L76.9672 8.58027C77.027 8.64156 77.1466 8.76414 77.326 8.76414L77.9241 8.88672L78.4623 9.00931C78.9408 9.13189 79.2996 9.25447 79.6584 9.62221C79.8378 9.80608 80.0172 10.1738 80.0172 10.5416C80.0172 10.9706 79.9574 11.277 79.7182 11.4609C79.5035 11.7446 79.2124 11.9577 78.8809 12.0738L77.6849 12.1964C77.2827 12.2072 76.8809 12.1661 76.4888 12.0738C76.1573 11.9577 75.8662 11.7446 75.6515 11.4609C75.4721 11.277 75.4123 10.848 75.4123 10.6029H76.728C76.728 10.7867 76.8476 11.0319 76.9672 11.2158L77.7447 11.3383C77.9241 11.3383 78.1633 11.277 78.3427 11.1545C78.4623 11.0319 78.5221 10.9706 78.5221 10.6641C78.5221 10.5416 78.5221 10.3577 78.3427 10.2351L77.6251 9.92866L77.027 9.86737L76.1898 9.56092C75.9506 9.43834 75.7711 9.25447 75.6515 9.0706C75.5319 8.82543 75.4721 8.64156 75.4721 8.3964C75.4721 8.08995 75.5917 7.7835 75.7711 7.53834C75.8908 7.35447 76.2496 7.10931 76.5486 6.98672L77.7447 6.86414C78.3427 6.86414 78.9408 6.98672 79.2398 7.29318C79.6584 7.53834 79.8378 7.90608 79.8378 8.45769H78.4623Z" fill="white"/>
<path fill-rule="evenodd" clip-rule="evenodd" d="M8.79114 18.1415C9.99447 18.2438 11.2054 18.0893 12.3475 17.6876C13.4896 17.2858 14.538 16.6457 15.4264 15.8077C16.3148 14.9696 17.0239 13.9518 17.509 12.8185C17.9941 11.6853 18.2445 10.4613 18.2445 9.22378C18.2445 7.9863 17.9941 6.76226 17.509 5.62903C17.0239 4.49579 16.3148 3.47797 15.4264 2.6399C14.538 1.80183 13.4896 1.16171 12.3475 0.759998C11.2054 0.358286 9.99447 0.20371 8.79114 0.306037C7.5878 0.20371 6.37684 0.358286 5.23476 0.759998C4.09268 1.16171 3.04431 1.80183 2.1559 2.6399C1.26749 3.47797 0.558346 4.49579 0.0732802 5.62903C-0.411786 6.76226 -0.662231 7.9863 -0.662231 9.22378C-0.662231 10.4613 -0.411786 11.6853 0.0732802 12.8185C0.558346 13.9518 1.26749 14.9696 2.1559 15.8077C3.04431 16.6457 4.09268 17.2858 5.23476 17.6876C6.37684 18.0893 7.5878 18.2438 8.79114 18.1415ZM14.4725 5.33184V8.88668C14.4725 8.88668 14.6519 11.6447 11.5421 14.0964L8.43231 11.0931C9.50878 10.848 10.2264 10.0512 10.4656 9.07055H11.0637C11.4225 9.07055 11.6617 8.82539 11.6617 8.45765C11.6617 8.08991 11.4225 7.84475 11.0637 7.84475H10.4656C10.4656 7.477 10.2862 7.23184 10.1068 6.92539H11.0637C11.4225 6.92539 11.6617 6.61894 11.6617 6.31249C11.6617 5.88346 11.4225 5.69958 11.0637 5.69958H6.33918C6.18057 5.69958 6.02845 5.76416 5.9163 5.8791C5.80414 5.99404 5.74114 6.14994 5.74114 6.31249C5.74114 6.61894 5.98035 6.92539 6.33918 6.92539H7.89408C8.49212 6.92539 8.97055 7.29313 9.20976 7.78346H6.33918C6.18057 7.78346 6.02845 7.84803 5.9163 7.96297C5.80414 8.07791 5.74114 8.23381 5.74114 8.39636C5.74114 8.82539 5.98035 9.00926 6.33918 9.00926H9.20976C8.97055 9.62217 8.49212 9.92862 7.89408 9.92862H7.05682C6.81761 9.92862 6.57839 10.1125 6.45878 10.3576C6.39898 10.6028 6.45878 10.9093 6.6382 11.0318L10.6451 14.8931C10.346 15.1383 10.047 15.3835 9.62839 15.5673C9.14996 15.8738 8.49212 15.8738 8.01369 15.5673C2.93035 12.748 3.10976 8.88668 3.10976 8.88668V5.33184C3.10976 4.65765 3.52839 4.10604 4.24604 3.92217L5.56172 3.677C7.35584 3.55442 10.346 3.55442 12.1402 3.677L13.396 3.92217C13.9941 3.98346 14.4725 4.53507 14.4725 5.27055V5.33184Z" fill="white"/>
</g>
</g>
<defs>
<clipPath id="clip0_873_1819">
<rect width="81.3333" height="19" fill="white"/>
</clipPath>
</defs>
</svg>
