<svg width="36" height="24" viewBox="0 0 36 24" fill="none" xmlns="http://www.w3.org/2000/svg">
<g clip-path="url(#clip0_873_1826)">
<mask id="mask0_873_1826" style="mask-type:luminance" maskUnits="userSpaceOnUse" x="0" y="0" width="36" height="24">
<path d="M0 0.160156H36V24.0002H0V0.160156Z" fill="white"/>
</mask>
<g mask="url(#mask0_873_1826)">
<path d="M1.40869 0.320097C0.939126 0.480097 0.469561 1.0401 0.234778 1.5201C-0.16853 4.99791 -0.247145 8.50706 -4.66406e-06 12.0001C-4.66406e-06 21.6001 -4.66406e-06 22.0801 0.234778 22.5601C0.3913 23.0401 1.01739 23.6801 1.48695 23.8401L18 23.9201C33.887 23.9201 34.2783 23.9201 34.6696 23.6801C35.2174 23.4401 35.7652 22.8801 35.8435 22.3201C36.0783 21.6801 36.0783 2.3201 35.8435 1.7601C35.8435 1.6001 35.6087 1.2001 35.3739 0.960097C34.5913 0.0800966 36.1565 0.160097 18 0.160097C4.69565 0.160097 1.56521 0.160097 1.40869 0.320097ZM34.7478 0.880097L35.2956 1.6801L35.5304 2.0801V12.1601C35.5304 23.3601 35.5304 22.5601 34.7478 23.2001L34.4348 23.4401H18C1.56521 23.4401 1.56521 23.4401 1.25217 23.2001L0.704343 22.4001L0.469561 22.0001V1.7601L0.782604 1.3601L1.48695 0.720097L18.1565 0.640097C34.4348 0.640097 34.4348 0.640097 34.7478 0.800097V0.880097Z" fill="white"/>
<path d="M3.36558 7.83938V12.2394H5.86993L5.79167 9.67938C5.79167 7.91938 5.79167 7.11938 5.86993 7.27938L7.66993 9.83938L9.39167 12.2394H11.7395V3.43938H9.39167V8.23938L8.13949 6.47938L6.26123 3.99938L5.79167 3.35938H3.36558V7.75938V7.83938ZM13.383 7.83938V12.2394H19.0178V10.1594H16.0438V8.79938H18.6264V6.79938H16.0438V5.43938H18.8612V3.43938H13.383V7.83938ZM19.6438 4.39938V5.43938H21.9917V12.2394H24.7308V5.43938H27.0786V3.43938H19.6438V4.39938ZM17.3743 17.1994V20.0794H18.9395V19.1994L19.0178 18.2394L19.4091 19.1994L19.8004 20.1594H21.6786L21.0525 19.1194L20.5047 18.0794L21.0525 17.2794L21.5221 16.3194H19.8004L19.4091 17.1194L19.0178 17.9994V14.3994H17.3743V17.2794V17.1994ZM22.0699 14.6394C21.7569 14.8794 21.7569 15.1994 22.0699 15.5994C22.2265 15.7594 22.383 15.8394 22.7743 15.8394C23.0873 15.8394 23.3221 15.8394 23.4004 15.6794C23.6351 15.3594 23.6351 14.8794 23.4004 14.5594C23.0873 14.3194 22.3047 14.3194 22.0699 14.5594V14.6394ZM3.1308 17.3594V20.1594H4.69602C6.18297 20.0794 6.49602 19.9994 6.80906 19.8394C7.35688 19.5194 7.59167 19.0394 7.59167 18.4794C7.59167 17.9194 7.35688 17.5194 6.80906 17.2794C6.41775 17.1194 6.41775 17.1194 6.65254 17.0394C7.04384 16.8794 7.43515 16.3194 7.43515 15.9194C7.43515 15.4394 7.04384 14.9594 6.49602 14.7194C5.84788 14.6285 5.19267 14.6017 4.53949 14.6394H3.1308V17.3594ZM5.47862 15.8394C5.71341 16.0794 5.63515 16.4794 5.47862 16.6394C5.27741 16.7092 5.06438 16.7364 4.85254 16.7194C4.53949 16.7194 4.53949 16.7194 4.53949 16.2394V15.7594H4.9308L5.47862 15.8394ZM5.63515 18.0794C6.10471 18.4794 5.71341 18.9594 5.00906 18.9594H4.53949V17.8394H5.00906C5.24384 17.8394 5.55689 17.9194 5.63515 18.0794ZM8.9221 16.2394C8.37428 16.3194 8.37428 16.3194 8.37428 16.8794V17.4394L8.84384 17.2794C9.39167 17.0394 10.0178 17.0394 10.1743 17.2794C10.4091 17.4394 10.3308 17.5194 9.78297 17.5994C8.5308 17.7594 7.98297 18.1594 7.98297 18.9594C7.98297 20.0794 9.00036 20.5594 9.93949 19.9194C10.3308 19.6794 10.3308 19.6794 10.3308 19.9194C10.3308 20.0794 10.3308 20.0794 11.1134 20.0794H11.896V18.6394C11.8178 17.0394 11.6612 16.7194 11.1134 16.3194C10.8004 16.0794 9.54819 15.9994 8.9221 16.2394ZM10.3308 18.6394C10.3308 18.9594 10.096 19.1194 9.78297 19.1194C9.39167 19.0394 9.31341 18.5594 9.70471 18.4794C10.096 18.2394 10.3308 18.3194 10.3308 18.5594V18.6394ZM14.7134 16.2394L14.2438 16.6394C14.2438 16.7994 14.1656 16.7994 14.1656 16.4794V16.1594H12.5221V20.0794H14.0873L14.1656 18.7994C14.1656 17.6794 14.2438 17.4394 14.4004 17.3594H14.7917C14.9482 17.4394 14.9482 17.6794 15.0265 18.7994V20.0794H16.6699V18.5594C16.6699 17.5994 16.5917 16.9594 16.4351 16.7194C16.2004 16.1594 15.4178 15.9194 14.7134 16.2394ZM26.6091 16.1594L26.2178 16.4794L25.9047 16.7994V16.4794C25.9047 16.1594 25.9047 16.1594 25.1221 16.1594H24.3395V20.0794H25.9047V18.8794C25.9047 17.5194 25.983 17.2794 26.4525 17.2794C26.6873 17.3594 26.6873 17.3594 26.7656 18.7194V20.0794H28.4091V18.6394C28.4091 17.0394 28.2525 16.4794 27.783 16.2394C27.4699 16.0794 27.0004 16.0794 26.6873 16.1594H26.6091ZM29.9743 16.3194C28.8786 16.8794 28.6438 18.8794 29.5047 19.7594C30.0525 20.3194 30.9917 20.3994 31.4612 19.9194L31.696 19.6794V19.9194C31.696 20.0794 31.6178 20.3994 31.4612 20.5594C31.1482 20.7994 31.0699 20.7994 30.4438 20.7994L29.6612 20.6394C29.4265 20.5594 29.4264 20.6394 29.4264 21.1194C29.4264 21.9194 29.4264 21.9194 30.6004 21.9194C31.6178 21.9194 32.1656 21.7594 32.7134 21.1994C33.2612 20.6394 33.3395 20.1594 33.3395 17.9994V16.1594H32.5569C31.8525 16.1594 31.7743 16.1594 31.7743 16.3994C31.7743 16.4794 31.696 16.4794 31.4612 16.3194C31.0699 15.9994 30.4438 15.9994 29.896 16.3194H29.9743ZM31.5395 17.4394C31.7743 17.5994 31.7743 18.4794 31.5395 18.7994C31.5395 19.0394 31.1482 19.0394 30.8351 18.8794C30.6004 18.7194 30.6004 17.9194 30.8351 17.5994C30.9917 17.2794 31.383 17.1994 31.6178 17.4394H31.5395ZM21.9134 18.1594V19.9994H23.5569V16.0794H21.9917V18.0794L21.9134 18.1594Z" fill="white"/>
</g>
</g>
<defs>
<clipPath id="clip0_873_1826">
<rect width="36" height="24" fill="white"/>
</clipPath>
</defs>
</svg>
