<svg width="67" height="25" viewBox="0 0 67 25" fill="none" xmlns="http://www.w3.org/2000/svg">
<g clip-path="url(#clip0_873_1813)">
<mask id="mask0_873_1813" style="mask-type:luminance" maskUnits="userSpaceOnUse" x="0" y="0" width="67" height="25">
<path d="M0 0H67V24.1936H0V0Z" fill="white"/>
</mask>
<g mask="url(#mask0_873_1813)">
<path d="M66.7604 6.2905C66.5104 5.55181 66.0753 4.89125 65.4975 4.37329C64.9198 3.85533 64.2191 3.49766 63.4638 3.33518C62.7085 3.17271 61.9245 3.21097 61.1882 3.44625C60.4519 3.68153 59.7885 4.10578 59.2628 4.6776C58.4748 3.83863 57.3984 3.33744 56.2556 3.27742C55.1128 3.2174 53.9908 3.60312 53.1211 4.35502V4.03244C53.1211 3.70985 52.8021 3.38727 52.483 3.38727H49.4521C49.133 3.38727 48.814 3.70985 48.814 4.11308V20.484C48.814 20.8873 49.133 21.1292 49.4521 21.1292H52.483C52.8021 21.1292 53.0413 20.8873 53.1211 20.5647V8.70986C53.1211 8.14534 53.5199 7.74211 54.158 7.66147H54.7163C54.9556 7.66147 55.1949 7.82276 55.3544 7.9034C55.5937 8.14534 55.7533 8.46792 55.7533 8.7905V20.5647C55.7533 20.8873 56.0723 21.2099 56.3913 21.2099H59.4223C59.7413 21.2099 60.0604 20.8873 60.0604 20.5647V8.7905C60.0597 8.50453 60.1663 8.22893 60.3588 8.01937C60.5512 7.8098 60.8152 7.68189 61.0973 7.66147H61.6556C62.2937 7.66147 62.6925 8.22598 62.6925 8.7905V20.484C62.6925 20.8873 63.0116 21.2099 63.3306 21.2099H66.3616C66.6806 21.2099 66.9997 20.8873 66.9997 20.484V7.9034C66.9997 7.09695 66.9199 6.69373 66.7604 6.2905ZM46.5009 3.46792H44.8259V0.645338C44.816 0.560347 44.7896 0.478184 44.748 0.403633C44.7065 0.329082 44.6507 0.263633 44.5839 0.211097C44.517 0.158561 44.4406 0.119987 44.3589 0.0976214C44.2772 0.0752557 44.1919 0.0695451 44.108 0.0808221C42.1937 0.564693 42.5925 3.30663 39.1628 3.46792H38.6842C38.3652 3.46792 38.1259 3.7905 38.1259 4.11308V7.25824C38.1259 7.58082 38.4449 7.9034 38.764 7.9034H40.6782V20.726C40.6782 21.0486 40.9973 21.3711 41.3163 21.3711H44.2675C44.6663 21.3711 44.9056 21.0486 44.9056 20.726V7.82276H46.5806C46.9794 7.82276 47.2985 7.58082 47.2985 7.25824V4.03244C47.2985 3.70985 46.9794 3.38727 46.5806 3.38727L46.5009 3.46792ZM35.8128 3.46792H32.7021C32.383 3.46792 32.064 3.7905 32.064 4.11308V10.484C32.064 10.8066 31.7449 11.1292 31.3461 11.1292H30.0699C29.9066 11.1117 29.7542 11.0381 29.6381 10.9207C29.5219 10.8033 29.4492 10.6492 29.4318 10.484V4.03244C29.4318 3.70985 29.1128 3.38727 28.714 3.38727H25.7628C25.364 3.38727 25.0449 3.70985 25.0449 4.03244V10.8873C25.0449 13.4679 26.8794 15.3228 29.5116 15.3228H31.5056C31.696 15.3228 31.8786 15.3992 32.0132 15.5353C32.1479 15.6715 32.2235 15.8561 32.2235 16.0486C32.2235 16.2411 32.1479 16.4257 32.0132 16.5618C31.8786 16.6979 31.696 16.7744 31.5056 16.7744H27.1187C26.7997 16.7744 26.4806 17.097 26.4806 17.4195V20.484C26.4806 20.8066 26.7997 21.1292 27.1187 21.1292H32.064C34.6163 21.1292 36.4509 19.2744 36.4509 16.6937V4.03244C36.4509 3.70985 36.1318 3.38727 35.8128 3.38727V3.46792ZM6.85921 9.03244V10.8873C6.85921 11.2905 6.54016 11.5324 6.14135 11.5324H4.22706V7.82276H6.14135C6.54016 7.82276 6.85921 8.14534 6.85921 8.54856V9.03244ZM7.09849 3.38727H0.558017C0.238969 3.38727 -0.0800781 3.7905 -0.0800781 4.11308V20.5647C-0.0800781 20.8873 0.159208 21.2099 0.558017 21.2099H3.58897C3.90802 21.2099 4.22706 20.8873 4.22706 20.5647V15.9679H7.17826C9.57111 15.9679 11.2461 14.2744 11.2461 11.855V7.58082C11.2461 5.16147 9.65087 3.46792 7.25802 3.46792L7.09849 3.38727ZM19.2223 16.1292V16.5324C19.2357 16.6125 19.2357 16.6943 19.2223 16.7744C19.1425 17.0163 18.8235 17.2582 18.5842 17.2582H17.308C16.9092 17.2582 16.5902 16.9357 16.5902 16.5324V13.9518C16.5902 13.6292 16.9092 13.3066 17.308 13.3066H18.5842C18.9033 13.3066 19.2223 13.6292 19.2223 13.9518V16.1292ZM18.7437 3.46792H14.5961C14.2771 3.46792 13.958 3.7905 13.958 4.11308V6.93566C13.958 7.33889 14.2771 7.58082 14.6759 7.58082H18.664C18.9033 7.58082 19.1425 7.9034 19.2223 8.22598V8.62921C19.2223 8.95179 18.9033 9.19373 18.664 9.27437H16.6699C14.0378 9.27437 12.2033 10.9679 12.2033 13.4679V16.9357C12.2033 19.355 13.7985 21.1292 16.4306 21.1292H21.8544C22.8116 21.1292 23.6092 20.3228 23.6092 19.5163V7.98405C23.6092 5.24211 22.1735 3.46792 18.8235 3.46792H18.7437Z" fill="white"/>
</g>
</g>
<defs>
<clipPath id="clip0_873_1813">
<rect width="67" height="25" fill="white"/>
</clipPath>
</defs>
</svg>
