<svg width="82" height="24" viewBox="0 0 82 24" fill="none" xmlns="http://www.w3.org/2000/svg">
<g clip-path="url(#clip0_873_1800)">
<path d="M55.9263 18.0383V13.935C55.9263 12.9286 55.6165 12.4641 54.6869 12.4641C54.2996 12.4641 53.9123 12.4641 53.6025 12.6189V18.4254C53.6025 18.5802 53.4476 18.8124 53.2152 18.8124H51.8984C51.7956 18.8124 51.6971 18.7717 51.6245 18.6991C51.5519 18.6265 51.5111 18.528 51.5111 18.4254V11.6124C51.5111 11.3802 51.7434 11.2254 51.8984 11.1479C52.8279 10.8383 53.7574 10.606 54.7644 10.606C56.9333 10.606 58.1726 11.7673 58.1726 13.935V18.5802C58.1726 18.735 58.0177 18.9673 57.7853 18.9673H57.0107C56.3911 18.9673 56.0038 18.5028 56.0038 18.0383H55.9263ZM61.5034 15.6383L61.426 16.1802C61.426 16.9544 61.8907 17.3415 62.6653 17.3415C63.2879 17.332 63.8991 17.1727 64.4469 16.877L64.6793 16.7995L64.9117 16.877L65.0666 17.1866C65.2215 17.3415 65.299 17.5737 65.299 17.7286C65.299 18.0383 65.1441 18.3479 64.9117 18.5028C64.2146 18.8899 63.3625 19.0447 62.5879 19.0447C61.5809 19.0447 60.8063 18.8124 60.1866 18.2705C59.8725 18.003 59.6199 17.6708 59.4461 17.2966C59.2723 16.9225 59.1814 16.5153 59.1796 16.1028V13.7802C59.1796 11.8447 60.419 10.6834 62.5104 10.6834C64.5244 10.6834 65.6863 11.7673 65.6863 13.7802V15.1737C65.6863 15.406 65.5314 15.5608 65.299 15.5608H61.426L61.5034 15.6383ZM61.426 14.2447H63.7498V13.6254C63.7498 12.8512 63.285 12.4641 62.5879 12.4641C61.8133 12.4641 61.426 12.8512 61.426 13.6254V14.2447ZM77.073 15.6383L76.9955 16.1802C76.9955 16.9544 77.4603 17.3415 78.3123 17.3415C78.9349 17.332 79.546 17.1727 80.0939 16.877L80.2488 16.7995L80.4812 16.877L80.7136 17.1866L80.946 17.7286C80.946 18.0383 80.7136 18.3479 80.4812 18.5028C79.7841 18.8899 79.0095 19.0447 78.1574 19.0447C77.1504 19.0447 76.3758 18.8124 75.8336 18.2705C75.5195 18.003 75.2669 17.6708 75.0931 17.2966C74.9193 16.9225 74.8284 16.5153 74.8266 16.1028V13.7802C74.8266 11.8447 75.9885 10.6834 78.0799 10.6834C80.0939 10.6834 81.2558 11.7673 81.2558 13.7802V15.1737C81.2558 15.406 81.1009 15.5608 80.946 15.5608H77.073V15.6383ZM76.9955 14.2447H79.3193V13.6254C79.3193 12.8512 78.932 12.4641 78.1574 12.4641C77.3828 12.4641 76.9955 12.8512 76.9955 13.6254V14.2447ZM40.899 18.8899H41.8285C42.0609 18.8899 42.2158 18.735 42.2158 18.5802V13.935C42.2158 11.8447 41.1314 10.606 39.2723 10.606C38.7436 10.6331 38.2216 10.7374 37.7231 10.9157V8.5931C37.7231 8.12858 37.3358 7.66406 36.7936 7.66406H36.019C35.7866 7.66406 35.5542 7.89632 35.5542 8.05116V18.5802C35.5542 18.735 35.7866 18.9673 35.9415 18.9673H37.3358C37.5682 18.9673 37.7231 18.735 37.7231 18.5802V12.7737C38.0725 12.6582 38.4397 12.6057 38.8076 12.6189C39.7371 12.6189 40.0469 13.006 40.0469 14.0899V18.0383C40.1244 18.5028 40.5117 18.9673 40.9765 18.9673L40.899 18.8899ZM50.1942 13.7802V16.1028C50.1942 17.9608 48.8774 19.1221 46.7085 19.1221C44.6945 19.1221 43.3003 17.9608 43.3003 16.0254V13.7802C43.3003 11.8447 44.6171 10.6834 46.7085 10.6834C48.8774 10.6834 50.1942 11.8447 50.1942 13.7802ZM48.0253 13.7802C48.0253 13.006 47.638 12.5415 46.786 12.5415C46.0114 12.5415 45.5466 13.006 45.5466 13.7802V16.1028C45.5466 16.7995 46.0114 17.1866 46.786 17.1866C47.5606 17.1866 48.0253 16.7995 48.0253 16.0254V13.7802ZM34.3149 12.7737C34.3149 14.7092 32.8431 16.0254 30.9066 16.0254C30.4419 16.0254 29.9771 16.0254 29.5898 15.7931V18.5802C29.5898 18.735 29.3574 18.9673 29.2025 18.9673H27.8082C27.7055 18.9673 27.607 18.9265 27.5343 18.8539C27.4617 18.7813 27.4209 18.6829 27.4209 18.5802V8.82535C27.4209 8.59309 27.5758 8.36084 27.8082 8.28342C28.7377 8.05116 29.5898 7.8189 30.5968 7.8189C32.8431 7.8189 34.3149 9.21245 34.3149 11.3028V12.7737ZM32.146 11.1479C32.146 10.1415 31.4488 9.59955 30.5968 9.59955C29.9771 9.59955 29.5898 9.8318 29.5898 9.8318V13.935C29.9771 14.0899 30.2095 14.1673 30.5968 14.1673C31.5263 14.1673 32.146 13.6254 32.146 12.6189V11.0705V11.1479ZM73.9745 12.6963C73.9745 14.7092 72.5028 16.0254 70.5663 16.0254C70.1015 16.0254 69.6368 16.0254 69.172 15.7931V18.5802C69.172 18.735 69.0171 18.9673 68.8622 18.9673H67.3904C67.3016 18.9492 67.222 18.9005 67.1654 18.8298C67.1088 18.7591 67.0788 18.6708 67.0806 18.5802V8.82535C67.0806 8.59309 67.2355 8.36084 67.3904 8.28342C68.3199 8.05116 69.2495 7.8189 70.2565 7.8189C72.4253 7.8189 73.9745 9.21245 73.9745 11.3028V12.7737V12.6963ZM71.8057 11.1479C71.8057 10.1415 71.1085 9.59955 70.2565 9.59955C69.6368 9.59955 69.2495 9.8318 69.2495 9.8318V13.935C69.6368 14.0899 69.7917 14.1673 70.2565 14.1673C71.186 14.1673 71.8057 13.6254 71.8057 12.6189V11.0705V11.1479Z" fill="white"/>
<path fill-rule="evenodd" clip-rule="evenodd" d="M13.9426 1.08376C15.3464 1.42435 16.6693 2.03795 17.8358 2.88953C19.0023 3.74111 19.9895 4.81399 20.7412 6.04691C21.4928 7.27984 21.9942 8.64865 22.2165 10.0752C22.4389 11.5018 22.378 12.9582 22.0372 14.3612C21.6964 15.7642 21.0825 17.0864 20.2305 18.2523C19.3784 19.4182 18.305 20.4049 17.0714 21.1562C15.8378 21.9074 14.4683 22.4085 13.041 22.6308C11.6137 22.853 10.1565 22.7921 8.75275 22.4515C5.91771 21.7637 3.47218 19.9784 1.95415 17.4884C0.436117 14.9984 -0.0300695 12.0076 0.658146 9.17409C1.34636 6.34055 3.1326 3.89631 5.62392 2.37908C8.11524 0.861851 11.1076 0.395912 13.9426 1.08376ZM15.4918 8.05151C15.9566 8.05151 16.3439 8.4386 16.3439 8.8257V9.52247C16.3439 9.67731 16.2664 9.75473 16.034 9.75473H14.7172V18.5805C14.7172 18.7354 14.5623 18.9676 14.3299 18.9676H13.5553C12.9356 18.9676 12.4708 18.5031 12.4708 17.9612V16.0257C11.9286 16.258 11.3864 16.258 10.7667 16.258C8.83021 16.258 7.6683 15.0192 7.6683 12.7741V9.83215H6.73878C6.53334 9.83215 6.33632 9.75058 6.19105 9.60539C6.04579 9.46021 5.96418 9.26329 5.96418 9.05796V8.4386C5.96418 8.28376 6.04164 8.12892 6.19656 8.12892H11.8512L8.13307 4.64505C7.97815 4.49022 8.13307 4.25796 8.28799 4.18054L9.44989 3.87086C9.91465 3.71602 10.3794 3.87086 10.6893 4.18054L14.0975 8.05151H15.4918ZM9.75973 12.7741C9.75973 13.9354 10.2245 14.3225 11.2315 14.3225C11.5413 14.3225 12.0061 14.3225 12.3934 14.1676V9.83215H9.75973V12.7741Z" fill="white"/>
</g>
<defs>
<clipPath id="clip0_873_1800">
<rect width="81.3333" height="24" fill="white"/>
</clipPath>
</defs>
</svg>
