<svg width="57" height="24" viewBox="0 0 57 24" fill="none" xmlns="http://www.w3.org/2000/svg">
<mask id="mask0_873_1789" style="mask-type:luminance" maskUnits="userSpaceOnUse" x="0" y="0" width="57" height="24">
<path d="M0 0H57V23.2258H0V0Z" fill="white"/>
</mask>
<g mask="url(#mask0_873_1789)">
<mask id="mask1_873_1789" style="mask-type:luminance" maskUnits="userSpaceOnUse" x="-5" y="-5" width="67" height="34">
<path d="M-4.65039 -4.95508H61.8746V28.3352H-4.65039V-4.95508Z" fill="white"/>
</mask>
<g mask="url(#mask1_873_1789)">
<path d="M0.600079 18.8908H0.975079L0.600079 20.5166V21.0585C0.750079 21.2133 0.900079 21.2908 1.12508 21.2908C1.35008 21.2908 1.50008 21.2133 1.65008 21.0585C1.80008 20.9811 1.87508 20.7488 1.95008 20.5166L2.32508 18.8908H2.77508L2.25008 20.594C2.25008 20.9037 2.02508 21.2133 1.80008 21.3682C1.57508 21.6004 1.27508 21.6779 0.900079 21.6779C0.600079 21.6779 0.300079 21.6004 0.150079 21.3682C0.0750791 21.2133 7.91028e-05 20.9811 0.150079 20.594L0.525079 18.8908H0.600079ZM2.70008 21.6004L3.45008 18.7359L4.65008 20.4391C4.73158 20.5372 4.80675 20.6406 4.87508 20.7488L5.32508 18.8908H5.77508L5.02508 21.6779L3.75008 19.9746C3.66731 19.9057 3.59189 19.8278 3.52508 19.7424L3.07508 21.6004H2.70008ZM5.70008 21.6004L6.37508 18.8908H6.75008L6.00008 21.6004H5.62508H5.70008ZM6.75008 21.6004L7.42508 18.8908H8.92508L8.77508 19.2779H7.72508L7.57508 19.8972H8.62508L8.55008 20.2843H7.50008L7.20008 21.6779H6.75008V21.6004ZM8.70008 21.6004L9.37508 18.8908H9.82508L9.15008 21.6004H8.70008ZM9.75008 21.6004L10.4251 18.8908H11.9251L11.8501 19.2779H10.8001L10.5751 19.9746H11.6251V20.3617H10.5001L10.2751 21.1359H11.3251V21.6004H9.82508H9.75008ZM12.3001 21.2133H13.1251L13.4251 21.0585L13.7251 20.6714C13.8785 20.4161 13.9567 20.1202 13.9501 19.8198L13.8001 19.4327L13.5001 19.2779H12.7501L12.3001 21.2133ZM11.7751 21.6004L12.3751 18.8908H13.7251L14.1001 19.123L14.4001 19.5875V20.2069L14.0251 20.9037C13.8053 21.2133 13.4865 21.4327 13.1251 21.523L12.4501 21.6004H11.7751ZM16.5001 20.0521L17.0251 19.9746C17.1751 19.8972 17.1751 19.8198 17.2501 19.665L17.1751 19.3553L16.7251 19.2779H16.6501L16.4251 20.0521H16.5001ZM16.3501 20.3617L16.0501 21.6004H15.6001L16.2751 18.8908H17.3251L17.5501 19.0456L17.7001 19.2779V19.665L17.5501 19.9746C17.4751 20.1295 17.4001 20.2069 17.2501 20.2069L17.0251 20.3617C16.8755 20.3773 16.7247 20.3773 16.5751 20.3617H16.3501ZM18.2251 20.5166H18.9751L18.8251 19.8972C18.8186 19.7941 18.8186 19.6907 18.8251 19.5875C18.7807 19.6936 18.7306 19.797 18.6751 19.8972L18.2251 20.5166ZM19.1251 21.6004L19.0501 20.9037H18.0001L17.4751 21.6004H17.0251L18.9751 18.7359L19.5751 21.6004H19.1251ZM20.2501 21.6004L20.5501 20.3617L20.0251 18.8133H20.4751L20.7751 19.8198C20.7791 19.8972 20.7791 19.9747 20.7751 20.0521C20.8441 19.9687 20.9193 19.891 21.0001 19.8198L21.7501 18.8908H22.2001L21.0001 20.3617L20.7001 21.6004H20.2501ZM24.3751 20.2843V19.8972C24.317 20.036 24.2414 20.1662 24.1501 20.2843L23.2501 21.6779L22.8751 20.2069C22.866 20.1039 22.866 20.0002 22.8751 19.8972C22.815 20.0349 22.7395 20.1648 22.6501 20.2843L22.0501 21.6004H21.6751L23.0251 18.7359L23.3251 20.5166C23.355 20.6185 23.38 20.7218 23.4001 20.8262C23.47 20.7192 23.5451 20.6159 23.6251 20.5166L24.8251 18.7359V21.6779H24.3751V20.3617V20.2843ZM25.0501 21.6004L25.7251 18.8908H27.2251L27.1501 19.2779H26.1001L25.8751 19.9746H27.0001V20.3617H25.8751L25.6501 21.1359H26.7001V21.6004H25.2001H25.0501ZM27.0001 21.6004L27.7501 18.7359L29.0251 20.4391C29.1066 20.5372 29.1817 20.6406 29.2501 20.7488L29.7001 18.8908H30.0751L29.4001 21.6779L28.0501 19.9746C27.9934 19.902 27.9432 19.8243 27.9001 19.7424L27.4501 21.6004H27.0751H27.0001ZM31.5001 19.2779L30.9001 21.6004H30.4501L31.0501 19.2779H30.3001L30.3751 18.8908H32.2501L32.1751 19.2779H31.4251H31.5001ZM31.8751 21.0585L32.3251 20.9037L32.4001 21.1359L32.7001 21.2908C32.8501 21.2908 32.9251 21.2908 33.0751 21.1359L33.2251 20.8262C33.2251 20.6714 33.2251 20.594 32.9251 20.4391C32.6251 20.2843 32.4751 20.1295 32.4001 19.9746V19.5875C32.4001 19.3553 32.4751 19.123 32.7001 19.0456C32.8501 18.8908 33.0751 18.8133 33.3001 18.8133C33.5251 18.8133 33.6751 18.8133 33.7501 18.9682C33.9001 18.9682 33.9751 19.123 33.9751 19.2779L33.6001 19.4327L33.4501 19.2779L33.2251 19.2004L32.9251 19.2779L32.7751 19.5101C32.7751 19.7424 32.8501 19.8198 33.1501 19.9746L33.6751 20.3617V20.8262C33.6751 21.0585 33.5251 21.2908 33.3001 21.4456C33.0751 21.6004 32.8501 21.6779 32.5501 21.6779C32.4001 21.6779 32.1751 21.6779 32.1001 21.523C31.9501 21.4456 31.8751 21.2908 31.8751 21.0585ZM35.1001 21.6004L35.7751 18.8908H36.1501L35.5501 21.6004H35.1001ZM36.1501 21.6004L36.9001 18.7359L38.1001 20.4391C38.1816 20.5372 38.2567 20.6406 38.3251 20.7488L38.7751 18.8908H39.1501L38.4751 21.6779L37.2001 19.9746C37.1173 19.9057 37.0419 19.8278 36.9751 19.7424L36.5251 21.6004H36.1501ZM40.5001 19.2779L39.9751 21.6004H39.6001L40.1251 19.2779H39.3751L39.5251 18.8908H41.2501V19.2779H40.5001ZM41.0251 21.6004L41.7001 18.8908H43.2001L43.0501 19.2779H42.0001L41.8501 19.9746H42.9001L42.8251 20.3617H41.7751L41.5501 21.1359H42.6001L42.5251 21.6004H41.0251ZM43.8001 20.0521H43.8751L44.4001 19.9746L44.5501 19.665V19.3553L44.1001 19.2779H44.0251L43.8001 20.0521ZM43.7251 20.3617L43.4251 21.6004H42.9751L43.7251 18.8908H44.6251L44.8501 19.0456L44.9251 19.2779V19.665C44.9251 19.8198 44.7751 20.0521 44.6251 20.1295C44.5501 20.2843 44.3251 20.3617 44.1751 20.3617L44.7751 21.6004H44.2501L43.6501 20.3617H43.7251ZM45.0751 21.6004L45.7501 18.8908H47.2501L47.1751 19.2779H46.1251L45.9001 19.8972H46.9501V20.2843H45.7501L45.4501 21.6004H45.0001H45.0751ZM47.7001 20.5166H48.4501L48.3751 19.8972C48.3684 19.7941 48.3684 19.6906 48.3751 19.5875C48.3061 19.6953 48.231 19.7987 48.1501 19.8972L47.7001 20.5166ZM48.7501 21.6779L48.6001 20.9811H47.5501L47.1001 21.6779H46.5001L48.4501 18.8133L49.0501 21.6779H48.6001H48.7501ZM51.9751 19.5101C51.8788 19.4062 51.762 19.3248 51.6326 19.2713C51.5032 19.2179 51.3643 19.1937 51.2251 19.2004C50.9251 19.2004 50.6251 19.2779 50.4751 19.5101C50.1751 19.665 50.0251 19.9746 49.9501 20.2843L50.0251 20.9811C50.1751 21.1359 50.4001 21.2908 50.7001 21.2908L51.1501 21.2133L51.6001 20.9037L51.4501 21.4456C51.1996 21.5965 50.9151 21.6766 50.6251 21.6779L50.0251 21.6004C49.8785 21.5317 49.7524 21.4236 49.6601 21.2874C49.5677 21.1512 49.5125 20.992 49.5001 20.8262V20.1295C49.6028 19.7222 49.8419 19.3656 50.1751 19.123L50.7001 18.8133L51.3001 18.7359H51.6751L52.0501 19.0456L51.9751 19.4327V19.5101ZM51.9751 21.6004L52.6501 18.8908H54.1501L54.0001 19.2779H52.9501L52.8001 19.9746H53.8501L53.7751 20.3617H52.7251L52.5001 21.1359H53.5501L53.4751 21.6004H51.9751ZM44.1001 16.4908H41.1001L45.2251 1.62625H48.2251L44.1001 16.4908ZM42.5251 2.09076C42.3751 1.78109 42.0001 1.62625 41.6251 1.62625H25.2751L24.5251 4.56818H39.3001L38.4751 7.66496H23.5501L21.1501 16.5682H24.1501L25.7251 10.6069H39.1501C39.5251 10.6069 39.9001 10.4521 40.2751 10.1424C40.6501 9.91012 40.8751 9.52302 41.0251 9.13592L42.6751 3.09722C42.8251 2.6327 42.7501 2.32302 42.5251 2.01334V2.09076ZM19.4251 15.5617C19.2001 16.1811 18.6751 16.5682 18.0751 16.5682H2.77508C2.32508 16.5682 2.02508 16.4133 1.80008 16.1811C1.65008 15.8714 1.57508 15.4843 1.72508 15.0972L5.47508 1.54883H8.47508L5.02508 13.6262H16.8751L20.2501 1.62625H23.2501L19.3501 15.5617H19.4251ZM50.7001 1.54883L54.4501 9.05851L46.5751 16.5682L50.7001 1.62625V1.54883Z" fill="white"/>
<path fill-rule="evenodd" clip-rule="evenodd" d="M52.6501 4.25823L55.0501 9.05823L49.9501 13.8582L49.2001 16.5679L57.1501 9.05823L53.4001 1.62598L52.6501 4.25823Z" fill="white"/>
</g>
</g>
</svg>
