<svg width="16" height="16" viewBox="0 0 16 16" fill="none" xmlns="http://www.w3.org/2000/svg">
<g clip-path="url(#clip0_873_1836)">
<path d="M7.99 15.86C6.66635 15.8613 5.36341 15.5313 4.2 14.9L0 16L1.13 11.9C0.255843 10.3885 -0.0949849 8.63067 0.131954 6.89937C0.358892 5.16806 1.15091 3.56007 2.3851 2.32489C3.6193 1.08971 5.22667 0.296412 6.95779 0.0680949C8.68891 -0.160222 10.447 0.189207 11.9592 1.06216C13.4715 1.93511 14.6533 3.28278 15.3214 4.89604C15.9894 6.5093 16.1063 8.29795 15.6539 9.98445C15.2016 11.6709 14.2052 13.161 12.8195 14.2234C11.4337 15.2857 9.73611 15.861 7.99 15.86ZM6.6 6.36001C6.62826 6.30564 6.64217 6.24496 6.64042 6.18371C6.63867 6.12246 6.62131 6.06268 6.59 6.01001L5.98 4.54001C5.96512 4.43539 5.90944 4.34091 5.82512 4.2772C5.74081 4.2135 5.63471 4.18575 5.53 4.20001H5.15C5.04992 4.20154 4.95123 4.22364 4.86006 4.26493C4.76888 4.30621 4.68717 4.36581 4.62 4.44001C4.39379 4.65242 4.21461 4.90989 4.09404 5.19581C3.97347 5.48174 3.91418 5.78976 3.92 6.10001C3.99 6.84001 4.27 7.55001 4.74 8.14001C5.58735 9.41628 6.75217 10.4501 8.12 11.14C8.49 11.29 8.87 11.44 9.25 11.55C9.65 11.67 10.08 11.7 10.5 11.63C10.7759 11.5738 11.0373 11.4613 11.2679 11.2996C11.4984 11.1378 11.6932 10.9303 11.84 10.69C11.97 10.39 12.01 10.07 11.96 9.75001C11.8522 9.64582 11.7223 9.56722 11.58 9.52001C11.096 9.27434 10.6058 9.04093 10.11 8.82001C10.0462 8.80559 9.97936 8.81245 9.91978 8.83953C9.8602 8.86661 9.81112 8.91243 9.78 8.97001C9.55391 9.26804 9.31363 9.55504 9.06 9.83001C9.007 9.86016 8.94606 9.87343 8.88532 9.86807C8.82458 9.86271 8.76691 9.83897 8.72 9.80001C7.57829 9.34249 6.62615 8.51025 6.02 7.44001C5.98239 7.37319 5.9718 7.2945 5.9904 7.22011C6.00899 7.14572 6.05537 7.08127 6.12 7.04001C6.29 6.82001 6.45 6.59001 6.6 6.36001Z" fill="white"/>
</g>
<defs>
<clipPath id="clip0_873_1836">
<rect width="16" height="16" fill="white"/>
</clipPath>
</defs>
</svg>
