<svg width="16" height="16" viewBox="0 0 16 16" fill="none" xmlns="http://www.w3.org/2000/svg">
<path d="M15.67 3.76C15.5786 3.41958 15.3993 3.10919 15.15 2.85995C14.9008 2.61072 14.5904 2.4314 14.25 2.34C13 2 8 2 8 2C8 2 3 2 1.75 2.34C1.06 2.52 0.52 3.07 0.33 3.76C0 5.02 0 7.64 0 7.64C0 7.64 0 10.26 0.33 11.51C0.52 12.21 1.06 12.73 1.75 12.91C3 13.25 8 13.25 8 13.25C8 13.25 13 13.25 14.25 12.91C14.94 12.73 15.48 12.21 15.67 11.51C16 10.26 16 7.64 16 7.64C16 7.64 16 5.02 15.67 3.76ZM6.37 10.02V5.26L10.55 7.64L6.36 10.02H6.37Z" fill="white"/>
</svg>
