<svg width="16" height="16" viewBox="0 0 16 16" fill="none" xmlns="http://www.w3.org/2000/svg">
<path d="M9.99996 11.3333V12C9.99996 13.1046 9.10453 14 7.99996 14C6.89539 14 5.99996 13.1046 5.99996 12V11.3333M9.99996 11.3333H5.99996M9.99996 11.3333H12.3936C12.6486 11.3333 12.7768 11.3333 12.88 11.2985C13.0773 11.232 13.2316 11.0771 13.2981 10.8799C13.3331 10.7762 13.3331 10.6477 13.3331 10.3906C13.3331 10.2782 13.333 10.2219 13.3242 10.1683C13.3075 10.067 13.2682 9.97089 13.2083 9.88748C13.1767 9.84341 13.1365 9.80318 13.0572 9.72389L12.7975 9.46419C12.7137 9.38041 12.6666 9.26676 12.6666 9.14827V6.66667C12.6666 4.08933 10.5773 1.99999 7.99996 2C5.42264 2.00001 3.33329 4.08934 3.33329 6.66667V9.14829C3.33329 9.26678 3.28612 9.38041 3.20234 9.46419L2.94267 9.72386C2.86313 9.8034 2.82332 9.84336 2.79163 9.8875C2.73173 9.97092 2.69206 10.067 2.67543 10.1683C2.66663 10.2219 2.66663 10.2782 2.66663 10.3906C2.66663 10.6477 2.66663 10.7762 2.70159 10.8798C2.76813 11.0771 2.92316 11.232 3.1204 11.2985C3.22367 11.3333 3.3513 11.3333 3.60633 11.3333H5.99996" stroke="#F8F4F4" stroke-width="1.2" stroke-linecap="round" stroke-linejoin="round"/>
</svg>
