<svg width="183" height="26" viewBox="0 0 183 26" fill="none" xmlns="http://www.w3.org/2000/svg">
<path d="M26.0862 7.32759L23.1552 12.3103L20.2241 7.32759L0 0L6.6951 6.15517L12.8966 7.62069L8.7931 8.08398L11.7961 10.8448L15.4128 10.2586L12.8966 11.8565L14.4767 13.3092L17.2931 12.6034L15.4128 14.1698L18.1724 16.7069L20.6638 15.3879L23.1552 14.069L25.6466 15.3879L28.1379 16.7069L30.8976 14.1698L29.0172 12.6034L31.8336 13.3092L33.4138 11.8565L30.8976 10.2586L34.5142 10.8448L37.5172 8.08398L33.4138 7.62069L39.6152 6.15517L46.3103 0L26.0862 7.32759Z" fill="white"/>
<path d="M24.9138 4.10352L23.1552 6.44834L21.3966 4.10352L20.5172 6.44834L23.1552 11.4311L25.7931 6.44834L24.9138 4.10352Z" fill="white"/>
<path d="M23.1552 14.0693L25.6466 15.3883L27.2586 20.5176L26.6724 21.2294L25.6466 20.0749L26.0862 21.9413L25.3276 22.8624L24.3276 21.1038L24.4532 23.9242L23.1552 25.5004L21.8572 23.9242L21.9828 21.1038L20.9828 22.8624L20.2241 21.9413L20.6638 20.0749L19.6379 21.2294L19.0517 20.5176L20.6638 15.3883L23.1552 14.0693Z" fill="white"/>
<path d="M48.6552 17V7C50.3218 7 54.1552 7 56.1552 7C58.6552 7 60.1552 8.5 60.1552 10C60.1552 11.5 59.1552 13.5 56.1552 13.5M56.1552 13.5C53.7552 13.5 51.8218 13.5 51.1552 13.5M56.1552 13.5L59.1552 17M79.6552 7C79.6552 7.16667 79.6552 7.8 79.6552 9C79.6552 10.5 80.1552 12.5 82.6552 12.5C84.6552 12.5 88.8218 12.5 90.6552 12.5M90.6552 12.5V7M90.6552 12.5C90.6552 15.5 89.1552 17 86.1552 17C83.7552 17 80.8218 17 79.6552 17M95.1552 17C95.1552 16.1662 95.1552 14.7763 95.1552 13.5M106.155 17V13.5M106.155 13.5V7C105.155 7 102.455 7 99.6552 7C96.1552 7 95.1552 9.5 95.1552 11C95.1552 11.533 95.1552 12.4802 95.1552 13.5M106.155 13.5H95.1552M111.155 7V17H120.655M124.155 17V7C124.489 7 125.355 7 126.155 7C127.155 7 130.655 8.5 130.655 11M130.655 11C130.655 13 130.655 15.8333 130.655 17M130.655 11C130.655 8.5 133.655 7 135.155 7C135.955 7 136.822 7 137.155 7V17M152.155 7H142.155V17H152.155M144.155 12H150.155M166.155 7C164.989 7 162.155 7 160.155 7C157.655 7 155.155 8.5 155.155 11.5C155.155 12.5 155.155 12.5 155.155 13.5C155.155 16 158.155 17 160.155 17C161.755 17 164.822 17 166.155 17V11.5H158.655M170.155 17C170.155 16.1662 170.155 14.7763 170.155 13.5M181.155 17V13.5M181.155 13.5V7C180.155 7 177.455 7 174.655 7C171.155 7 170.155 9.5 170.155 11C170.155 11.533 170.155 12.4802 170.155 13.5M181.155 13.5H170.155M69.6552 7C65.6552 7 63.6552 9 63.6552 12C63.6552 15 66.6552 17 69.6552 17C72.6552 17 75.6552 15 75.6552 12C75.6552 9 73.6552 7 69.6552 7Z" stroke="white" stroke-width="2" stroke-linecap="square"/>
</svg>
