<svg width="145" height="37" viewBox="0 0 145 37" fill="none" xmlns="http://www.w3.org/2000/svg">
<path d="M1 36V26C2.79874 26 6.93585 26 9.09434 26C11.7925 26 13.4113 27.5 13.4113 29C13.4113 30.5 12.3321 32.5 9.09434 32.5M9.09434 32.5C6.50415 32.5 4.41761 32.5 3.69811 32.5M9.09434 32.5L12.3321 36M34.4566 26C34.4566 26.1667 34.4566 26.8 34.4566 28C34.4566 29.5 34.9962 31.5 37.6943 31.5C39.8528 31.5 44.3497 31.5 46.3283 31.5M46.3283 31.5V26M46.3283 31.5C46.3283 34.5 44.7094 36 41.4717 36C38.8815 36 35.7157 36 34.4566 36M51.1849 36C51.1849 35.1662 51.1849 33.7763 51.1849 32.5M63.0566 36V32.5M63.0566 32.5V26C61.9774 26 59.0634 26 56.0415 26C52.2642 26 51.1849 28.5 51.1849 30C51.1849 30.533 51.1849 31.4802 51.1849 32.5M63.0566 32.5H51.1849M68.4528 26V36H78.7057M82.483 36V26C82.8428 26 83.7781 26 84.6415 26C85.7208 26 89.4981 27.5 89.4981 30M89.4981 30C89.4981 32 89.4981 34.8333 89.4981 36M89.4981 30C89.4981 27.5 92.7359 26 94.3547 26C95.2181 26 96.1535 26 96.5132 26V36M112.702 26H101.909V36H112.702M104.068 31H110.543M127.811 26C126.552 26 123.494 26 121.336 26C118.638 26 115.94 27.5 115.94 30.5C115.94 31.5 115.94 31.5 115.94 32.5C115.94 35 119.177 36 121.336 36C123.063 36 126.372 36 127.811 36V30.5H119.717M132.128 36C132.128 35.1662 132.128 33.7763 132.128 32.5M144 36V32.5M144 32.5V26C142.921 26 140.007 26 136.985 26C133.208 26 132.128 28.5 132.128 30C132.128 30.533 132.128 31.4802 132.128 32.5M144 32.5H132.128M23.6642 26C19.3472 26 17.1887 28 17.1887 31C17.1887 34 20.4264 36 23.6642 36C26.9019 36 30.1396 34 30.1396 31C30.1396 28 27.9811 26 23.6642 26Z" stroke="#F8F4F4" stroke-width="2" stroke-linecap="round"/>
<path d="M74.7152 5.45886L72.5 9.17089L70.2848 5.45886L55 0L60.06 4.58544L64.7468 5.67722L61.6456 6.02236L63.9152 8.07911L66.6485 7.6424L64.7468 8.83279L65.9411 9.91503L68.0696 9.38924L66.6485 10.5561L68.7342 12.4462L70.6171 11.4636L72.5 10.481L74.3829 11.4636L76.2658 12.4462L78.3515 10.5561L76.9304 9.38924L79.0589 9.91503L80.2532 8.83279L78.3515 7.6424L81.0848 8.07911L83.3544 6.02236L80.2532 5.67722L84.94 4.58544L90 0L74.7152 5.45886Z" fill="#F8F4F4"/>
<path d="M73.8286 3.05664L72.4995 4.80348L71.1704 3.05664L70.5059 4.80348L72.4995 8.5155L74.4932 4.80348L73.8286 3.05664Z" fill="#F8F4F4"/>
<path d="M72.4997 10.4805L74.3826 11.4631L75.601 15.2843L75.1579 15.8146L74.3826 14.9545L74.7149 16.3448L74.1416 17.0311L73.3858 15.721L73.4807 17.8221L72.4997 18.9963L71.5187 17.8221L71.6136 15.721L70.8579 17.0311L70.2845 16.3448L70.6168 14.9545L69.8415 15.8146L69.3984 15.2843L70.6168 11.4631L72.4997 10.4805Z" fill="#F8F4F4"/>
</svg>
