<svg width="220" height="102" viewBox="0 0 220 102" fill="none" xmlns="http://www.w3.org/2000/svg">
<g filter="url(#filter0_d_873_1463)">
<path d="M10 -1H210V45.9812C210 50.2686 207.267 54.0789 203.206 55.4534L113.206 85.9149C111.127 86.6187 108.873 86.6187 106.794 85.9149L16.794 55.4534C12.733 54.0789 10 50.2686 10 45.9812V-1Z" fill="url(#paint0_linear_873_1463)"/>
<path d="M209.5 -0.5V45.9814C209.5 50.0542 206.904 53.6737 203.046 54.9795L113.046 85.4414C111.07 86.11 108.93 86.11 106.954 85.4414L16.9541 54.9795C13.0963 53.6737 10.5001 50.0542 10.5 45.9814V-0.5H209.5Z" stroke="#6F1020"/>
</g>
<defs>
<filter id="filter0_d_873_1463" x="0" y="-6" width="220" height="107.443" filterUnits="userSpaceOnUse" color-interpolation-filters="sRGB">
<feFlood flood-opacity="0" result="BackgroundImageFix"/>
<feColorMatrix in="SourceAlpha" type="matrix" values="0 0 0 0 0 0 0 0 0 0 0 0 0 0 0 0 0 0 127 0" result="hardAlpha"/>
<feOffset dy="5"/>
<feGaussianBlur stdDeviation="5"/>
<feComposite in2="hardAlpha" operator="out"/>
<feColorMatrix type="matrix" values="0 0 0 0 0 0 0 0 0 0 0 0 0 0 0 0 0 0 0.2 0"/>
<feBlend mode="normal" in2="BackgroundImageFix" result="effect1_dropShadow_873_1463"/>
<feBlend mode="normal" in="SourceGraphic" in2="effect1_dropShadow_873_1463" result="shape"/>
</filter>
<linearGradient id="paint0_linear_873_1463" x1="110" y1="-1" x2="110" y2="87" gradientUnits="userSpaceOnUse">
<stop stop-color="#160306"/>
<stop offset="1" stop-color="#7C1223"/>
</linearGradient>
</defs>
</svg>
