<svg width="20" height="20" viewBox="0 0 20 20" fill="none" xmlns="http://www.w3.org/2000/svg">
<path d="M3.88168 5.6277C2.88869 5.88836 2.56592 6.75167 2.56592 7.52276V14.6937C2.56592 15.6147 3.02644 16.6673 4.53956 16.6673H15.4604C16.9735 16.6673 17.434 15.6147 17.434 14.6937V7.52276C17.434 6.60173 16.9735 5.54912 15.4604 5.54912H14.9999M3.88168 5.6277C4.07478 5.57702 4.29322 5.54912 4.53956 5.54912H14.9999M3.88168 5.6277C6.44742 4.94363 11.6842 3.54916 12.1052 3.44389C12.6315 3.31232 14.0131 3.11495 14.4078 4.10178C14.7236 4.89123 14.9341 5.39561 14.9999 5.54912M13.8815 10.0227C13.3552 10.0227 12.7631 10.4174 12.7631 11.1411C12.7631 11.8648 13.421 12.2595 13.8815 12.2595C14.342 12.2595 14.9999 11.8648 14.9999 11.1411C14.9999 10.4174 14.4078 10.0227 13.8815 10.0227Z" stroke="#F8F4F4" stroke-width="1.2" stroke-linecap="round" stroke-linejoin="round"/>
</svg>
